<svg xmlns="http://www.w3.org/2000/svg" xml:space="preserve" width="1500" height="701" data-id="lg_OPvVQ98UYBOIeeQxxh" data-version="1" viewBox="0 0 1500 701"><g data-padding="20"><g transform="translate(10 20.678)scale(.941)"><path fill="#ff584f" d="M950.51 589.813h-333.6s74.643-494.4 166.8-494.4 166.8 494.4 166.8 494.4" opacity=".6"/><path fill="#55b0ff" d="M619.88.093h336s-75.18 524-168 524-168-524-168-524" opacity=".6"/><rect width="280.375" height="388.72" x="247.692" y="-284.577" fill="none" rx="0" ry="0" transform="translate(399.97 420.49)"/><path fill="#002443" d="M897.95 307.463h-92.54v41.96h13.76v-23.73l81.18-3.1v115.24q-36.8 3.1-98.9 3.1-62.09 0-94.6-31.31-32.5-31.3-32.5-92.88 0-61.57 31.99-90.47 31.99-28.89 95.29-28.89 25.11 0 49.19 2.4 24.08 2.41 35.77 4.82l11.36 2.41Z"/><path fill="#ff584f" d="M887.31 697.808c-13.75.25-24.95-11.07-25.2-25.47s10.55-26.12 24.3-26.37 24.95 11.07 25.2 25.47-10.55 26.12-24.3 26.37m-.8-46.08c-10.725.195-19.095 9.278-18.9 20.51s8.875 20.005 19.6 19.81 19.095-9.279 18.9-20.51-8.875-20.005-19.6-19.81m-.7-40.32a24.754 25.924-.509 0 1-18.295-8.023l-46.095 54.423c3.1 4.265 4.84 9.42 4.94 15.18.25 14.4-10.55 26.12-24.3 26.37s-24.95-11.07-25.2-25.47 10.55-26.12 24.3-26.37c6.325-.116 11.87 2.376 16.335 6.04l46.64-54.72c-1.99-3.71-3.445-8.293-3.525-12.9-.25-14.4 10.55-26.12 24.3-26.37s24.95 11.07 25.2 25.47-10.55 26.12-24.3 26.37m-84.55 41.87c-10.725.195-19.095 9.277-18.9 20.51s8.875 20.005 19.6 19.81 19.095-9.279 18.9-20.51-8.875-20.005-19.6-19.81m83.75-87.95c-10.725.195-19.095 9.277-18.9 20.51s8.875 20.005 19.6 19.81 19.095-9.279 18.9-20.51-8.875-20.006-19.6-19.81m-85.35-4.21c13.75-.25 24.95 11.07 25.2 25.47s-10.55 26.12-24.3 26.37-24.95-11.07-25.2-25.47 10.55-26.12 24.3-26.37m.8 46.08c10.725-.196 19.095-9.279 18.9-20.51s-8.875-20.006-19.6-19.81-19.095 9.278-18.9 20.51 8.875 20.004 19.6 19.81m-87.55-130.93c13.75-.25 24.95 11.07 25.2 25.47s-10.55 26.12-24.3 26.37-24.95-11.07-25.2-25.47 10.55-26.12 24.3-26.37m.8 46.08c10.725-.196 19.095-9.278 18.9-20.51s-8.875-20.005-19.6-19.81-19.095 9.278-18.9 20.51 8.875 20.005 19.6 19.81"/><path fill="#ff584f" d="M884.31 525.008c-12.65.23-23.275-9.66-24.875-22.595l-36.3.66c-1.15 12.985-11.425 23.255-24.075 23.485-8.8.16-16.585-4.596-21.11-11.716l-48.6 52.74a24.699 25.866-.509 0 1-11.295 46.587l.61 35.136a24.699 25.866-.509 0 1-1.855 51.603 24.699 25.866-.509 0 1-3.645-51.502l-.605-34.848a24.699 25.866-.509 0 1 1.855-51.602c3.575-.066 6.89.739 9.935 1.836l51.03-55.377a24.644 25.809-.509 0 1 22.78-34.697c12.65-.23 23.275 9.66 24.875 22.595l36.025-.655a24.699 25.866-.509 0 1 49.275 1.985c.25 14.4-10.275 26.115-24.025 26.365m-187.2 150.33c.195 11.232 8.875 20.005 19.6 19.81s19.095-9.278 18.9-20.51-8.875-20.005-19.6-19.81-19.095 9.278-18.9 20.51m-1.5-86.4c.195 11.232 8.875 20.005 19.6 19.81s19.095-9.278 18.9-20.51-8.875-20.005-19.6-19.81-19.095 9.278-18.9 20.51m102.65-108.46c-10.725.195-19.095 9.278-18.9 20.51s8.875 20.005 19.6 19.81 19.095-9.278 18.9-20.51-8.875-20.005-19.6-19.81m85.25-1.55c-10.725.195-19.095 9.278-18.9 20.51s8.875 20.005 19.6 19.81 19.095-9.278 18.9-20.51-8.875-20.005-19.6-19.81"/></g><path fill="transparent" stroke="transparent" d="M580.5 0h339v701h-339z"/></g></svg>